<?xml version="1.0" encoding="utf-8"?>
<!-- Generator: Adobe Illustrator 16.0.0, SVG Export Plug-In . SVG Version: 6.00 Build 0)  -->
<!DOCTYPE svg PUBLIC "-//W3C//DTD SVG 1.1//EN" "http://www.w3.org/Graphics/SVG/1.1/DTD/svg11.dtd">
<svg version="1.1" id="Layer_1" xmlns="http://www.w3.org/2000/svg" xmlns:xlink="http://www.w3.org/1999/xlink" x="0px" y="0px"
	 width="108.501px" height="77.5px" viewBox="0 0 108.501 77.5" enable-background="new 0 0 108.501 77.5" xml:space="preserve">
<g>
	<g>
		<g>
			<g>
				<path fill="#75C9C6" d="M39.784,36.751l0.008,0.781c-0.389,8.836-7.678,15.826-16.615,15.826
					c-9.158,0-16.607-7.449-16.607-16.607s7.449-16.609,16.607-16.609c5.395,0,10.471,2.637,13.586,7.051l4.176-2.944
					c-4.068-5.771-10.709-9.217-17.762-9.217c-11.975,0-21.719,9.743-21.719,21.72c0,11.975,9.744,21.718,21.719,21.718
					c1.641,0,3.232-0.198,4.768-0.539c-0.346,1.257-0.588,2.555-0.588,3.921c0,8.217,6.686,14.904,14.904,14.904
					s14.906-6.688,14.906-14.904l-0.117-1.875l-5.07,0.633l0.076,1.242c0,5.398-4.395,9.793-9.795,9.793
					c-5.402,0-9.795-4.395-9.795-9.793c0-5.402,4.393-9.796,9.795-9.796c2.115,0,4.131,0.663,5.824,1.919l0.223,0.164
					c0,0,0.213,0.096,0.238,0.107c3.66,2.709,8.229,4.224,12.957,4.224c11.977,0,21.719-9.743,21.719-21.718
					c0-11.977-9.742-21.72-21.719-21.72C49.528,15.031,39.784,24.774,39.784,36.751 M44.876,37.656l0.002-0.063l0.023-0.152
					l-0.006-0.689c0-9.158,7.451-16.609,16.607-16.609c9.158,0,16.609,7.451,16.609,16.609s-7.451,16.607-16.609,16.607
					c-3.818,0-7.354-1.178-10.223-3.408l-0.242-0.188l-0.279-0.124c-2.48-1.73-5.369-2.668-8.41-2.686
					C43.827,44.165,44.737,41.022,44.876,37.656"/>
				<path fill="#75C9C6" d="M35.46,63.327l-0.166,0.139l0.059,0.258c0.016,0.053,1.77,5.24,8.18,3.932l0.268-0.074
					c6.336-1.633,5.582-6.854,5.574-6.906c-0.002-0.012-0.09-0.449-0.09-0.449l-0.229-0.026
					C40.563,59.169,35.663,63.157,35.46,63.327 M48.747,60.818c0.01,0.058,0.029,0.228,0.029,0.501c0,1.271-0.484,4.445-5.143,5.645
					c-0.006,0.001-0.205,0.058-0.234,0.066c-5.303,1.08-7.051-2.518-7.375-3.331C36.847,63.089,41.431,60.011,48.747,60.818"/>
				<path fill="#75C9C6" d="M37.353,57.804c-0.346,0.812-0.266,1.623,0.182,1.814c0.447,0.189,1.09-0.313,1.436-1.125
					c0.346-0.811,0.264-1.623-0.182-1.812C38.341,56.489,37.698,56.993,37.353,57.804"/>
				<path fill="#75C9C6" d="M43.526,57.657c0.637,0.612,1.424,0.824,1.762,0.474c0.334-0.347,0.092-1.128-0.543-1.739
					c-0.637-0.613-1.424-0.824-1.762-0.475C42.647,56.267,42.892,57.046,43.526,57.657"/>
				<path fill="#75C9C6" d="M21.61,31.238c-1.221,1.499-1.543,3.264-0.717,3.941c0.826,0.671,2.486,0,3.711-1.499
					c1.225-1.505,1.547-3.264,0.721-3.941C24.499,29.064,22.841,29.736,21.61,31.238"/>
				<path fill="#75C9C6" d="M25.325,29.739c0,0,1.246,1.294,4.145,0.411c0,0-2.271,2.202-4.039,0.596"/>
				<path fill="#75C9C6" d="M31.263,34.024c-1.227,1.5-1.547,3.264-0.721,3.941c0.824,0.666,2.484,0.002,3.711-1.5
					c1.225-1.506,1.551-3.268,0.721-3.939C34.153,31.851,32.487,32.523,31.263,34.024"/>
				<path fill="#75C9C6" d="M34.974,32.526c0,0,1.246,1.293,4.146,0.41c0,0-2.273,2.202-4.043,0.598"/>
				<path fill="#75C9C6" d="M52.579,36.688c-1.416-3.392-4.076-5.514-5.947-4.736c-1.861,0.775-2.227,4.156-0.82,7.55
					c1.416,3.394,4.076,5.515,5.941,4.737C53.626,43.463,53.987,40.082,52.579,36.688"/>
				<path fill="#75C9C6" d="M63.897,28.969c0.023-0.012-0.271,0.132-0.271,0.132c-0.008,0.005-14.258,7.504-14.258,7.504
					l0.326,0.621l14.25-7.499c-0.008,0.005,0.285-0.14,0.285-0.14c0.547-0.315,1.143-0.479,1.748-0.479
					c1.887,0,3.42,1.535,3.42,3.422c0,1.072-0.49,2.064-1.346,2.719l0.426,0.558c1.031-0.788,1.623-1.982,1.623-3.276
					c0-2.274-1.85-4.124-4.123-4.124C65.249,28.406,64.53,28.602,63.897,28.969"/>
			</g>
			<path fill="#75C9C6" d="M0.554,76.192c0.066-1.422,0.098-8.984,0.098-9.823V62.88c0-0.551-0.098-8.854-0.16-9.63h7.592
				c-0.062,0.581-0.16,6.817-0.16,7.401v1.29l8.4-0.613V59.97c0-0.547-0.062-6.009-0.129-6.72h7.529
				c-0.031,0.776-0.129,9.823-0.129,10.599v3.23c0,0.422,0.064,8.5,0.129,9.113h-7.529c0.033-1.098,0.129-6.334,0.129-6.947V66.79
				l-8.4,0.613v1.162c0,1.455,0.098,6.884,0.129,7.627H0.554z"/>
			<path fill="#75C9C6" d="M57.235,74.97c0.529-1.246,6.822-17.539,8.629-21.496h0.312c1.898,3.084,6.512,10.717,7.477,12.307
				c1.215-1.839,5.607-9.13,7.258-11.809h0.311c2.15,4.611,8.412,18.756,9.254,20.469l-6.293,2.803
				c-0.996-2.492-3.957-10.404-4.299-11.245c-0.375,0.56-4.361,6.696-6.699,9.968h-0.311c-2.398-3.613-5.67-8.908-6.168-9.844
				c-0.529,1.619-2.773,9.657-3.334,11.121L57.235,74.97z"/>
			<path fill="#75C9C6" d="M108.065,76.662c-1.164,0-12.836-0.323-14.518-0.323c0.096-1.715,0.096-8.633,0.096-9.377v-4.333
				c0-0.519-0.064-8.311-0.096-9.248c1.811,0,12.674-0.485,13.871-0.583l0.129,5.337c-1.197,0-6.273,0.161-6.855,0.161v4.268
				c0.646,0,4.365-0.161,5.789-0.29l0.098,5.173c-0.875,0-5.174-0.129-5.887-0.129v3.848c0.842,0,5.725,0.064,7.244-0.064
				L108.065,76.662z"/>
		</g>
		<g>
			<path fill="#75C9C6" d="M84.565,3.612h2.201c0.135-0.996,0.279-2.042,0.43-3.139l2.836,0.202
				c-0.135,1.029-0.262,2.008-0.379,2.937h3.012V0.371h2.738v3.241h1.824v2.53h-1.824v13.139c0.607-0.152,1.248-0.312,1.924-0.48
				l-0.305,2.657c-0.572,0.136-1.113,0.253-1.619,0.354v2.051h-2.738v-1.469c-1.688,0.304-3.004,0.456-3.949,0.456h-0.658
				c-2.059,0-3.088-1.206-3.088-3.62c0-1.131,0.498-5.494,1.494-13.088h-1.898V3.612z M92.665,19.889V6.143h-3.367
				c-0.994,7.73-1.492,11.983-1.492,12.759c0,1.029,0.369,1.544,1.113,1.544C89.679,20.445,90.927,20.26,92.665,19.889
				 M97.935,1.488h2.738v0.86c1.873-0.438,3.359-0.657,4.455-0.657h0.406c1.146,0,1.84,0.793,2.076,2.38
				c0.168,1.282,0.252,4.252,0.252,8.909c0,2.617-0.076,5.131-0.229,7.546h0.432v2.529h-7.393v0.705h-2.738V1.488z M100.673,20.526
				h4.33c0.15-2.278,0.227-4.794,0.227-7.546l-0.025-6.43l-0.102-1.621c-0.084-0.59-0.244-0.885-0.48-0.885
				c-0.861,0-2.178,0.219-3.949,0.658V20.526z"/>
			<path fill="#75C9C6" d="M88.825,31.839h15.189v2.53h-8.607c-0.691,0.658-1.35,1.292-1.975,1.898
				c1.621-0.253,3.021-0.38,4.203-0.38h0.582c0.91,0,1.629,0.279,2.15,0.836c0.305,0.32,0.49,1.367,0.559,3.139
				c1.232-1.232,2.496-2.59,3.797-4.076l2.127,1.824c-1.672,1.755-3.182,3.29-4.531,4.607c1.586,1.939,3.5,4.059,5.746,6.354
				l-2.531,1.291c-1.621-1.704-3.156-3.469-4.607-5.291c-0.035,1.013-0.084,1.933-0.152,2.76c-0.102,0.894-0.389,1.543-0.859,1.949
				c-0.422,0.354-1.141,0.547-2.152,0.582h-0.533c-1.08,0-2.463-0.094-4.152-0.278l-0.328-1.925
				c-0.912,0.861-1.779,1.663-2.607,2.406l-2.127-1.621c3.225-2.734,6.6-5.957,10.127-9.67c-0.033-0.203-0.086-0.338-0.152-0.405
				c-0.135-0.169-0.389-0.254-0.76-0.254c-3.83,3.681-7.238,6.794-10.227,9.343l-2.127-1.646c2.65-2.109,5.4-4.514,8.254-7.215
				c-0.828,0.152-1.756,0.328-2.785,0.532c-1.215,1.097-2.363,2.118-3.443,3.063l-2.127-1.646c2.16-1.788,4.396-3.846,6.709-6.177
				h-2.658V31.839z M95.2,26.268h2.865v1.848h0.379h1.773c2.514,0,4.354,0.16,5.518,0.481c1.52,0.472,2.295,1.485,2.33,3.037
				c0,1.165-0.27,2.523-0.811,4.076l-2.707-0.43c0.521-1.705,0.783-2.785,0.783-3.24c-0.033-0.795-0.422-1.275-1.164-1.443
				c-1.182-0.237-2.633-0.355-4.354-0.355c-2.854,0-6.822,0.313-11.902,0.938v4.811h-2.738v-7.874h2.738v0.937
				c2.936-0.388,5.365-0.659,7.289-0.81V26.268z M98.243,42.241c-1.805,1.822-3.51,3.502-5.113,5.037
				c1.535,0.188,2.902,0.279,4.1,0.279c0.557,0,0.854-0.279,0.887-0.835C98.2,45.608,98.243,44.114,98.243,42.241"/>
		</g>
	</g>
</g>
</svg>
