<?xml version="1.0" encoding="utf-8"?>
<!-- Generator: Adobe Illustrator 16.0.0, SVG Export Plug-In . SVG Version: 6.00 Build 0)  -->
<!DOCTYPE svg PUBLIC "-//W3C//DTD SVG 1.1//EN" "http://www.w3.org/Graphics/SVG/1.1/DTD/svg11.dtd">
<svg version="1.1" id="Layer_1" xmlns="http://www.w3.org/2000/svg" xmlns:xlink="http://www.w3.org/1999/xlink" x="0px" y="0px"
	 width="26px" height="26px" viewBox="0 0 26 26" enable-background="new 0 0 26 26" xml:space="preserve">
<path fill="#8DD7C3" d="M5.68,9.726h1.531l5.818,7.26l5.791-7.26h1.5l-6.84,8.549h-0.99L5.68,9.726z M25,13
	c0,6.627-5.373,12-12.002,12C6.373,25,1,19.627,1,13S6.373,1,12.998,1C19.627,1,25,6.373,25,13 M26,13c0-7.168-5.833-13-13.002-13
	C5.831,0,0,5.832,0,13s5.831,13,12.998,13C20.167,26,26,20.168,26,13L26,13z"/>
</svg>
