<?xml version="1.0" encoding="utf-8"?>
<!-- Generator: Adobe Illustrator 16.0.0, SVG Export Plug-In . SVG Version: 6.00 Build 0)  -->
<!DOCTYPE svg PUBLIC "-//W3C//DTD SVG 1.1//EN" "http://www.w3.org/Graphics/SVG/1.1/DTD/svg11.dtd">
<svg version="1.1" xmlns="http://www.w3.org/2000/svg" xmlns:xlink="http://www.w3.org/1999/xlink" x="0px" y="0px" width="32px"
	 height="32px" viewBox="0 0 32 32" enable-background="new 0 0 32 32" xml:space="preserve">
<g id="Layer_1">
</g>
<g id="Layer_2">
	<g>
		<path fill="#528FA2" d="M24.5,5C26.154,5,27,5.846,27,7.5v16c0,1.654-0.846,3.5-2.5,3.5h-16C6.846,27,5,25.154,5,23.5v-16
			C5,5.846,6.846,5,8.5,5H24 M24.5,4h-16C6.291,4,4,5.291,4,7.5v16C4,25.709,6.291,28,8.5,28h16c2.209,0,3.5-2.291,3.5-4.5v-16
			C28,5.291,26.709,4,24.5,4L24.5,4z"/>
	</g>
	<line fill="none" stroke="#528FA2" stroke-miterlimit="10" x1="10" y1="11.5" x2="22" y2="11.5"/>
	<line fill="none" stroke="#528FA2" stroke-miterlimit="10" x1="10" y1="16.5" x2="22" y2="16.5"/>
	<line fill="none" stroke="#528FA2" stroke-miterlimit="10" x1="10" y1="21.5" x2="22" y2="21.5"/>
</g>
</svg>
